<svg id="Calque_1" data-name="Calque 1" xmlns="http://www.w3.org/2000/svg" viewBox="0 0 599.97 244.49"><defs><style>.cls-1{fill:#29235c;}.cls-2{fill:#f39200;}</style></defs><title>Vaanah logotype privisoire</title><path class="cls-1" d="M265.7,116.75v37.3c0,1.6-1.1,2.28-2.7,2.28-20.68,0-36.88-17-36.88-39.58a2.47,2.47,0,0,1,2.62-2.28,2.31,2.31,0,0,1,2.19,2.28c0,9.79,3.12,18.48,8.69,24.9a33.08,33.08,0,0,0,21.18,10.13v-35a2.25,2.25,0,0,1,2.19-2.28C264.6,114.47,265.7,115.32,265.7,116.75Z"/><path class="cls-1" d="M312.79,136.5v17.89a2.35,2.35,0,0,1-2.45,2.62,2.6,2.6,0,0,1-2.45-2.62v-5.74a20.93,20.93,0,0,1-16.37,7.93,21.1,21.1,0,1,1,21.27-21.35Zm-4.89,0v-1.27a16.37,16.37,0,0,0-32.75,0,16.39,16.39,0,0,0,32.75,1.27Z"/><path class="cls-1" d="M358.86,136.5v17.89a2.35,2.35,0,0,1-2.45,2.62,2.6,2.6,0,0,1-2.45-2.62v-5.74a20.93,20.93,0,0,1-16.37,7.93,21.1,21.1,0,1,1,21.27-21.35Zm-4.89,0v-1.27a16.37,16.37,0,0,0-32.75,0A16.39,16.39,0,0,0,354,136.5Z"/><path class="cls-1" d="M407.47,135.07V154a2.45,2.45,0,0,1-2.28,2.28,2.53,2.53,0,0,1-2.62-2.28v-18.9a16.29,16.29,0,0,0-32.58,0l-.34,19.24a2.17,2.17,0,0,1-2.28,2.28,2.39,2.39,0,0,1-2.28-2.28V135.07a21.19,21.19,0,0,1,42.37,0Z"/><path class="cls-1" d="M453.79,136.5v17.89a2.35,2.35,0,0,1-2.45,2.62,2.6,2.6,0,0,1-2.45-2.62v-5.74a20.93,20.93,0,0,1-16.37,7.93,21.1,21.1,0,1,1,21.27-21.35Zm-4.89,0v-1.27a16.37,16.37,0,0,0-32.75,0,16.39,16.39,0,0,0,32.75,1.27Z"/><path class="cls-1" d="M504.42,135.07v19.24a2.53,2.53,0,0,1-2.36,2.28,2.21,2.21,0,0,1-2.28-2.28V135.07c0-9.2-7.68-16.12-17.3-16.12-9.2,0-16.88,6.92-16.88,16.12v19.24a2.23,2.23,0,0,1-2.36,2.28,2.52,2.52,0,0,1-2.28-2.28V97a2.21,2.21,0,0,1,2.28-2.28A2.53,2.53,0,0,1,465.6,97v25a22.06,22.06,0,0,1,16.88-7.68C494.8,114.3,504.42,123.5,504.42,135.07Z"/><path class="cls-2" d="M205.34,103.86a12.47,12.47,0,0,0-12.42-13.51,12.45,12.45,0,0,0-10.22,5.38L174,108.29a28.17,28.17,0,0,1-14.92,11,28.8,28.8,0,0,1-17.43-.1,28.17,28.17,0,0,1-14.73-11.06l-8.4-12.37a12.45,12.45,0,0,0-10.3-5.45h-.06A12.43,12.43,0,0,0,95.8,101.35c0,.15,0,.29,0,.44-.14,1.58-.22,3.17-.22,4.78,0,23.48,32.92,62.67,47.79,79.18a9.57,9.57,0,0,0,7.21,3.17h0a9.57,9.57,0,0,0,7.06-3.17c14.87-16.5,47.79-55.69,47.79-79.18C205.41,105.66,205.38,104.76,205.34,103.86Z"/><circle class="cls-1" cx="150.48" cy="75.22" r="19.66"/></svg>